<svg xmlns="http://www.w3.org/2000/svg" xmlns:xlink="http://www.w3.org/1999/xlink" id="Warstwa_2" data-name="Warstwa 2" viewBox="0 0 1721.73 1617.51"><defs><style>      .cls-1, .cls-2, .cls-3 {        stroke-width: 0px;      }      .cls-2 {        fill: none;      }      .cls-3 {        fill: url(#Gradient_bez_nazwy_2);      }    </style><linearGradient id="Gradient_bez_nazwy_2" data-name="Gradient bez nazwy 2" x1="0" y1="594.37" x2="827.65" y2="594.37" gradientUnits="userSpaceOnUse"><stop offset="0" stop-color="#000"></stop><stop offset="1" stop-color="#000"></stop></linearGradient></defs><g id="Warstwa_1-2" data-name="Warstwa 1"><g><path class="cls-3" d="m0,451.66v284.57l827.65,452.51v-336.83l-435.09-238.81-32.43-17.78m0,0l467.52-256.58V0L48.29,425.36,0,451.66"></path><polygon class="cls-1" points="827.65 851.92 827.65 1188.74 0 736.24 0 451.66 48.29 425.36 360.13 595.33 392.56 613.11 827.65 851.92"></polygon><path class="cls-1" d="m894.06,1617.51v-338.72l467.47-256.6-467.47-256.6v-336.84l827.64,452.55v284.59l-827.64,451.61Z"></path><path class="cls-1" d="m1667.31,851.56l-306.19,170.45.36.24-46.73,25.71-420.67,230.88v338.63l827.65-451.55v-284.57l-54.42-29.79Z"></path><line class="cls-2" x1="824.17" y1="848.55" x2="392.56" y2="613.11"></line></g></g></svg>